<?xml version="1.0" standalone="no"?>
<!DOCTYPE svg PUBLIC "-//W3C//DTD SVG 20010904//EN"
 "http://www.w3.org/TR/2001/REC-SVG-20010904/DTD/svg10.dtd">
<svg version="1.0" xmlns="http://www.w3.org/2000/svg"
 width="500.000000pt" height="500.000000pt" viewBox="0 0 500.000000 500.000000"
 preserveAspectRatio="xMidYMid meet">

<g transform="translate(0.000000,500.000000) scale(0.100000,-0.100000)"
fill="#000000" stroke="none">
<path d="M2338 4130 c-475 -46 -925 -304 -1203 -691 -127 -176 -202 -339 -263
-569 l-36 -135 0 -235 c-1 -267 10 -338 85 -558 132 -384 432 -717 822 -916
131 -67 231 -102 409 -143 102 -24 133 -27 313 -27 152 -1 223 4 298 17 355
66 653 216 881 443 151 151 230 259 326 449 103 203 157 416 167 656 25 615
-295 1185 -843 1500 -174 100 -334 158 -534 193 -110 19 -311 27 -422 16z
m317 -380 c372 -53 728 -290 931 -620 178 -287 228 -652 133 -972 -91 -308
-309 -584 -592 -750 -77 -45 -240 -109 -356 -140 -98 -26 -352 -36 -473 -19
-99 15 -361 100 -438 144 -351 196 -589 524 -656 902 -18 105 -18 300 1 410
52 295 249 600 511 791 176 128 370 213 569 248 95 17 272 20 370 6z"/>
<path d="M3112 3149 c-51 -5 -69 -12 -93 -35 -61 -57 -67 -93 -68 -361 l-1
-143 -74 0 -73 0 -7 50 c-5 35 -16 60 -36 83 -24 27 -35 32 -75 32 -40 0 -50
-4 -71 -30 -31 -39 -37 -83 -32 -266 3 -173 12 -199 73 -219 67 -22 131 28
142 110 l6 40 73 0 74 0 0 -192 c0 -209 7 -251 47 -299 40 -47 79 -59 193 -59
112 0 141 10 183 60 37 44 47 89 47 222 l0 117 28 -7 c44 -12 80 -3 111 28 27
27 30 38 36 126 9 121 -2 292 -21 321 -23 37 -71 56 -121 49 l-43 -6 0 126 c0
105 -3 131 -20 164 -40 79 -120 104 -278 89z"/>
<path d="M1640 3128 c-68 -46 -74 -65 -81 -221 -4 -78 -7 -143 -8 -144 0 -1
-15 3 -31 9 -42 14 -92 3 -121 -28 -24 -25 -24 -28 -24 -231 l0 -205 34 -30
c34 -30 62 -34 131 -17 13 3 15 -17 17 -133 2 -160 13 -195 76 -236 38 -25 48
-27 151 -27 132 0 166 14 202 85 22 43 23 56 24 253 l0 207 80 0 80 0 0 -30
c0 -54 26 -99 66 -116 45 -19 78 -12 115 26 l29 28 0 195 c0 194 0 196 -25
225 -32 38 -72 48 -118 28 -42 -17 -56 -40 -64 -106 l-6 -50 -78 0 -78 0 -3
213 -3 214 -28 42 c-39 58 -74 71 -200 71 -91 0 -108 -3 -137 -22z m101 -198
c18 -10 19 -26 19 -430 0 -367 -2 -421 -16 -434 -20 -20 -38 -20 -58 0 -14 13
-16 67 -16 434 0 389 1 420 18 429 22 13 29 13 53 1z"/>
</g>
</svg>
